# xmcd
#
# Track frame offsets: 
#        150
#        15743
#        30650
#        47005
#        67613
#        79948
#        98953
#        116767
#        126977
#        150301
#        172274
#
# Disc length: 2514 seconds
#
# Revision: 0
# Processed by: cddbd v1.5.2PL0 Copyright (c) Steve Scherf et al.
# Submitted via: ExactAudioCopyFreeDBPlugin 1.0
#
DISCID=8809d00b
DTITLE=Rachel Dawick - Journeys
DYEAR=2008
DGENRE=New Zealand: Country/Blues
TTITLE0=Time Traveller's Wife
TTITLE1=Strange Rivers
TTITLE2=Mortal Child
TTITLE3=Pania of the Reef
TTITLE4=Empty Pockets
TTITLE5=Sailor
TTITLE6=Storm
TTITLE7=Moonbeams
TTITLE8=Roll Over
TTITLE9=Shadows
TTITLE10=Busker
EXTD=
EXTT0=
EXTT1=
EXTT2=
EXTT3=
EXTT4=
EXTT5=
EXTT6=
EXTT7=
EXTT8=
EXTT9=
EXTT10=
PLAYORDER=
